<svg width="100" height="100" viewBox="0 0 100 100" fill="none" xmlns="http://www.w3.org/2000/svg">
<g clip-path="url(#clip0_2_2)">
<path d="M50 12L93.3013 87H6.69873L50 12Z" fill="black"/>
<line x1="18.9925" y1="81.7447" x2="51.7586" y2="58.8017" stroke="white" stroke-width="7"/>
<line x1="52.9" y1="58.2" x2="56.9" y2="55.2" stroke="white" stroke-width="7"/>
<line x1="57.9" y1="54.2" x2="61.9" y2="51.2" stroke="white" stroke-width="7"/>
<path d="M59.4811 45.5822L59.0123 46.4655L60.7789 47.4031L61.2477 46.5198L60.3644 46.051L59.4811 45.5822ZM59.5504 33.0281L58.8262 32.3385C57.214 34.0317 56.4913 35.5981 56.4504 37.1143C56.4101 38.608 57.0409 39.8547 57.6899 40.8753C58.01 41.3786 58.3749 41.8858 58.6716 42.3197C58.9828 42.7748 59.241 43.1794 59.4274 43.5686C59.7797 44.3038 59.8441 44.8981 59.4811 45.5822L60.3644 46.051L61.2477 46.5198C61.9974 45.1072 61.7637 43.8159 61.2311 42.7043C60.9751 42.1701 60.6441 41.6611 60.3225 41.1907C59.9863 40.6992 59.6747 40.2692 59.3776 39.802C58.7922 38.8816 58.4258 38.0541 58.4497 37.1683C58.473 36.305 58.8759 35.1867 60.2746 33.7177L59.5504 33.0281Z" fill="white"/>
</g>
<defs>
<clipPath id="clip0_2_2">
<rect width="100" height="100" fill="white"/>
</clipPath>
</defs>
</svg>
